G04 Filename: S:\JOB\SEAM\ARCHIVE_SERVICE\KLIEMANN_SERVICE\BOTTOM_MASK.GBX *
G04 Creator: GC-CAM (TM) 4.1.4  Thu Jun 25 11:42:20 2015 *
G04 This file contains layer(s): *
G04 Layer 5: C:\liams\gmz100_anschluss.gbs *
%FSLAX35Y35*%
G04 Units: mm   *
%MOMM*%
G71*
%SFA1.00000B1.00000*%
%OFA0.00000B0.00000*%
G75*
%AD*%
G04 D48 (position 39 of UNTITLED):2.946400 Round     *
%ADD48C,2.946400*%
G04 D49 (position 40 of UNTITLED):1.652524 Square    *
%ADD49R,1.652524X1.652524*%
G04 D50 (position 41 of UNTITLED):1.652524 Round     *
%ADD50C,1.652524*%
G04 D51 (position 42 of UNTITLED):1.955800 Round     *
%ADD51C,1.955800*%
G04 D52 (position 43 of UNTITLED):3.352800 Round     *
%ADD52C,3.352800*%
G04 D53 (position 44 of UNTITLED):2.565400 Round     *
%ADD53C,2.565400*%
G04 D54 (position 45 of UNTITLED):0.152400 Round     *
%ADD54C,0.152400*%
G04 D55 (position 46 of UNTITLED):1.422400 Round     *
%ADD55C,1.422400*%
G04 D57 (position 48 of UNTITLED):0.100000 Round     *
%ADD57C,0.100000*%
%IPPOS*%
G04 Layer 5: C:\liams\gmz100_anschluss.gbs *
%LN(05)C:\liams\gmz100_anschluss.gbs*%
%LPD*%
X0Y0D02*
D57*
X-38599991Y-4349999D02*
G03X-38699991Y-4249999I-100000J0D01*
G01Y-5249997D02*
G03X-38599991Y-5149997I0J100000D01*
G01X-10399996D02*
G03X-10299997Y-5249997I99999J0D01*
G01Y-4249999D02*
G03X-10399996Y-4349999I0J-100000D01*
G01X-38999990Y4499996D02*
X-9999997D01*
X-38599991Y-5149997D02*
Y-4349999D01*
X-38999990Y-4249999D02*
X-38699991D01*
X-38999990Y-5249997D02*
X-38699991D01*
X-10299997D02*
X-9999997D01*
X-10299997Y-4249999D02*
X-9999997D01*
X-10399996Y-5149997D02*
Y-4349999D01*
X-38999990Y-10000000D02*
Y-5249997D01*
Y-4249999D02*
Y4499996D01*
X-9999997Y-10000000D02*
Y-5249997D01*
X-38999990Y-10000000D02*
X-9999997D01*
Y-4249999D02*
Y4499996D01*
D48*
X-38532630Y4023340D03*
X-27168670D03*
X-26668671D03*
X-24567710D03*
X-24067711D03*
X-37532632D03*
X-38032631D03*
X-35899514Y-3980175D03*
X-35399134D03*
X-35899514Y-4480555D03*
X-35399134D03*
X-35899514Y-4980935D03*
X-35399134D03*
X-35899514Y-3479795D03*
X-35399134D03*
Y-5481315D03*
X-35899514D03*
X-33113134Y-3980175D03*
X-32612754D03*
X-33113134Y-4480555D03*
X-32612754D03*
X-33113134Y-4980935D03*
X-32612754D03*
X-33113134Y-3479795D03*
X-32612754D03*
Y-5481315D03*
X-33113134D03*
X-30326754Y-3980175D03*
X-29826374D03*
X-30326754Y-4480555D03*
X-29826374D03*
X-30326754Y-4980935D03*
X-29826374D03*
X-30326754Y-3479795D03*
X-29826374D03*
Y-5481315D03*
X-30326754D03*
X-27540374Y-3980175D03*
X-27039994D03*
X-27540374Y-4480555D03*
X-27039994D03*
X-27540374Y-4980935D03*
X-27039994D03*
X-27540374Y-3479795D03*
X-27039994D03*
Y-5481315D03*
X-27540374D03*
X-24753994Y-3980175D03*
X-24253614D03*
X-24753994Y-4480555D03*
X-24253614D03*
X-24753994Y-4980935D03*
X-24253614D03*
X-24753994Y-3479795D03*
X-24253614D03*
Y-5481315D03*
X-24753994D03*
X-21967614Y-3980175D03*
X-21467234D03*
X-21967614Y-4480555D03*
X-21467234D03*
X-21967614Y-4980935D03*
X-21467234D03*
X-21967614Y-3479795D03*
X-21467234D03*
Y-5481315D03*
X-21967614D03*
X-19181234Y-3980175D03*
X-18680854D03*
X-19181234Y-4480555D03*
X-18680854D03*
X-19181234Y-4980935D03*
X-18680854D03*
X-19181234Y-3479795D03*
X-18680854D03*
Y-5481315D03*
X-19181234D03*
X-16394854Y-3980175D03*
X-15894474D03*
X-16394854Y-4480555D03*
X-15894474D03*
X-16394854Y-4980935D03*
X-15894474D03*
X-16394854Y-3479795D03*
X-15894474D03*
Y-5481315D03*
X-16394854D03*
X-13608474Y-3980175D03*
X-13108094D03*
X-13608474Y-4480555D03*
X-13108094D03*
X-13608474Y-4980935D03*
X-13108094D03*
X-13608474Y-3479795D03*
X-13108094D03*
Y-5481315D03*
X-13608474D03*
X-14995314Y-7595839D03*
X-14494934D03*
X-14995314Y-8096219D03*
X-14494934D03*
X-14995314Y-8596599D03*
X-14494934D03*
X-14995314Y-7095459D03*
X-14494934D03*
Y-9096979D03*
X-14995314D03*
X-21500254Y-7196221D03*
X-22000634D03*
X-21500254Y-8697361D03*
X-22000634D03*
X-21500254Y-8196981D03*
X-22000634D03*
X-21500254Y-7696601D03*
X-22000634D03*
X-28429374Y-7196221D03*
X-28929754D03*
X-28429374Y-8697361D03*
X-28929754D03*
X-28429374Y-8196981D03*
X-28929754D03*
X-28429374Y-7696601D03*
X-28929754D03*
X-33999594Y-8196600D03*
X-34499974D03*
X-33999594Y-7696220D03*
X-34499974D03*
X-33999594Y-8696980D03*
X-34499974D03*
D49*
X-23499132Y3421360D03*
D50*
Y3675360D03*
X-23245132Y3421360D03*
Y3675360D03*
X-22991132Y3421360D03*
Y3675360D03*
X-22737132Y3421360D03*
Y3675360D03*
X-22483132Y3421360D03*
Y3675360D03*
X-22229132Y3421360D03*
Y3675360D03*
X-21975132Y3421360D03*
Y3675360D03*
X-21721132Y3421360D03*
Y3675360D03*
X-21467132Y3421360D03*
Y3675360D03*
X-21213132Y3421360D03*
Y3675360D03*
D51*
X-35111250Y2311380D03*
Y2057380D03*
Y1803380D03*
X-12821074Y2311405D03*
Y2057405D03*
Y1803405D03*
X-15607454Y2311405D03*
Y2057405D03*
Y1803405D03*
X-18393834Y2311405D03*
Y2057405D03*
Y1803405D03*
X-21180214Y2311405D03*
Y2057405D03*
Y1803405D03*
X-23966594Y2311405D03*
Y2057405D03*
Y1803405D03*
X-26752974Y2311405D03*
Y2057405D03*
Y1803405D03*
X-29539354Y2311405D03*
Y2057405D03*
Y1803405D03*
X-32325734Y2311405D03*
Y2057405D03*
Y1803405D03*
X-13202074Y414025D03*
X-12440074D03*
X-15988454D03*
X-15226454D03*
X-18774834D03*
X-18012834D03*
X-21561214D03*
X-20799214D03*
X-24347594D03*
X-23585594D03*
X-27133974D03*
X-26371974D03*
X-29920354D03*
X-29158354D03*
X-32706734D03*
X-31944734D03*
X-35493114D03*
X-34731114D03*
D52*
X-17177174Y-7193300D03*
X-16669174D03*
X-17177174Y-7955300D03*
X-16669174D03*
X-24182494Y-7193300D03*
X-23674494D03*
X-24182494Y-7955300D03*
X-23674494D03*
X-36681834Y-7193300D03*
X-36173834D03*
X-36681834Y-7955300D03*
X-36173834D03*
X-14235854Y-1805935D03*
X-13727854D03*
X-14235854Y-2567935D03*
X-13727854D03*
X-17022234Y-1805935D03*
X-16514234D03*
X-17022234Y-2567935D03*
X-16514234D03*
X-19808614Y-1805935D03*
X-19300614D03*
X-19808614Y-2567935D03*
X-19300614D03*
X-22594994Y-1805935D03*
X-22086994D03*
X-22594994Y-2567935D03*
X-22086994D03*
X-25381374Y-1805935D03*
X-24873374D03*
X-25381374Y-2567935D03*
X-24873374D03*
X-28167754Y-1805935D03*
X-27659754D03*
X-28167754Y-2567935D03*
X-27659754D03*
X-30954134Y-1805935D03*
X-30446134D03*
X-30954134Y-2567935D03*
X-30446134D03*
X-33740514Y-1805935D03*
X-33232514D03*
X-33740514Y-2567935D03*
X-33232514D03*
X-36526894Y-1805935D03*
X-36018894D03*
X-36526894Y-2567935D03*
X-36018894D03*
D53*
X-12440074Y-1485895D03*
Y-2125975D03*
X-13202074Y-1805935D03*
X-15226454Y-1485895D03*
Y-2125975D03*
X-15988454Y-1805935D03*
X-18012834Y-1485895D03*
Y-2125975D03*
X-18774834Y-1805935D03*
X-20799214Y-1485895D03*
Y-2125975D03*
X-21561214Y-1805935D03*
X-23585594Y-1485895D03*
Y-2125975D03*
X-24347594Y-1805935D03*
X-26371974Y-1485895D03*
Y-2125975D03*
X-27133974Y-1805935D03*
X-29158354Y-1485895D03*
Y-2125975D03*
X-29920354Y-1805935D03*
X-31944734Y-1485895D03*
Y-2125975D03*
X-32706734Y-1805935D03*
X-34731114Y-1485895D03*
Y-2125975D03*
X-35493114Y-1805935D03*
D54*
X-38149979Y-8500003D03*
X-10849983D03*
X-38149979Y5D03*
X-10849983D03*
X-30749435Y-7500716D03*
X-18249435D03*
D55*
X-25684472Y1803405D03*
X-25685335Y2311405D03*
X-25802150Y3502640D03*
X-26965470Y3291820D03*
X-23018310Y2974320D03*
X-23015770Y414000D03*
M02*
