%%
%
T1C610F0S0
T2C900F0S0
T3C991F0S0
T4C1092F0S0
T5C1295F0S0
T6C1397F0S0
T7C2400F0S0
%
T1C610
X-230158Y4140
X-230183Y29743
X-258022Y35026
X-256853Y23114
X-256845Y18034
X-269655Y32918
T2C900
X-232451Y34214
X-232451Y36754
X-229911Y36754
X-229911Y34214
X-227371Y34214
X-227371Y36754
X-224831Y36754
X-224831Y34214
X-222291Y34214
X-222291Y36754
X-219751Y36754
X-219751Y34214
X-217211Y34214
X-217211Y36754
X-214671Y36754
X-214671Y34214
X-212131Y34214
X-212131Y36754
X-234991Y36754
X-234991Y34214
T3C991
X-128211Y18034
X-128211Y20574
X-128211Y23114
X-156075Y23114
X-156075Y20574
X-156075Y18034
X-183938Y18034
X-183938Y20574
X-183938Y23114
X-211802Y23114
X-211802Y20574
X-211802Y18034
X-239666Y18034
X-239666Y20574
X-239666Y23114
X-267530Y23114
X-267530Y20574
X-267530Y18034
X-295394Y18034
X-295394Y20574
X-295394Y23114
X-323257Y23114
X-323257Y20574
X-323257Y18034
X-351113Y18034
X-351113Y20574
X-351113Y23114
T4C1092
X-152265Y4140
X-132021Y4140
X-124401Y4140
X-159885Y4140
X-180128Y4140
X-187748Y4140
X-207992Y4140
X-215612Y4140
X-235856Y4140
X-243476Y4140
X-263720Y4140
X-271340Y4140
X-291584Y4140
X-299204Y4140
X-319447Y4140
X-327067Y4140
X-347311Y4140
X-354931Y4140
T5C1295
X-366818Y-79553
X-361738Y-79553
X-366818Y-71933
X-361738Y-71933
X-360189Y-25679
X-365269Y-25679
X-365269Y-18059
X-360189Y-18059
X-354931Y-18059
X-347311Y-14859
X-375326Y40233
X-380326Y40233
X-385326Y40233
X-332325Y-18059
X-337405Y-18059
X-347311Y-21260
X-337405Y-25679
X-332325Y-25679
X-327067Y-18059
X-319447Y-14859
X-319447Y-21260
X-309541Y-25679
X-304461Y-25679
X-309541Y-18059
X-304461Y-18059
X-299204Y-18059
X-291584Y-14859
X-291584Y-21260
X-281678Y-18059
X-276598Y-18059
X-271340Y-18059
X-276598Y-25679
X-281678Y-25679
X-241825Y-71933
X-236745Y-71933
X-241825Y-79553
X-236745Y-79553
X-171772Y-79553
X-166692Y-79553
X-166692Y-71933
X-171772Y-71933
X-137279Y-25679
X-124401Y-21260
X-124401Y-14859
X-132021Y-18059
X-137279Y-18059
X-142359Y-18059
X-142359Y-25679
X-152265Y-21260
X-152265Y-14859
X-159885Y-18059
X-165142Y-18059
X-170222Y-18059
X-165142Y-25679
X-170222Y-25679
X-180128Y-21260
X-180128Y-14859
X-187748Y-18059
X-193006Y-18059
X-198086Y-18059
X-193006Y-25679
X-198086Y-25679
X-207992Y-21260
X-207992Y-14859
X-215612Y-18059
X-220870Y-18059
X-225950Y-18059
X-220870Y-25679
X-225950Y-25679
X-235856Y-21260
X-235856Y-14859
X-243476Y-18059
X-248734Y-18059
X-253814Y-18059
X-248734Y-25679
X-253814Y-25679
X-263720Y-21260
X-263720Y-14859
X-271687Y40233
X-266687Y40233
X-245677Y40233
X-240677Y40233
T6C1397
X-353991Y-54813
X-358995Y-49809
X-353991Y-44806
X-358995Y-39802
X-358995Y-34798
X-353991Y-34798
X-353991Y-39802
X-358995Y-44806
X-353991Y-49809
X-358995Y-54813
X-345000Y-76962
X-339996Y-81966
X-339996Y-86970
X-345000Y-86970
X-345000Y-81966
X-339996Y-76962
X-331131Y-54813
X-326128Y-49809
X-326128Y-44806
X-326128Y-39802
X-331131Y-34798
X-326128Y-34798
X-331131Y-39802
X-331131Y-44806
X-331131Y-49809
X-326128Y-54813
X-303268Y-34798
X-298264Y-39802
X-298264Y-34798
X-303268Y-39802
X-298264Y-44806
X-303268Y-44806
X-303268Y-49809
X-298264Y-49809
X-303268Y-54813
X-298264Y-54813
X-289298Y-71962
X-284294Y-76966
X-289298Y-81970
X-289298Y-86974
X-284294Y-86974
X-284294Y-81970
X-289298Y-76966
X-284294Y-71962
X-275404Y-54813
X-270400Y-54813
X-270400Y-49809
X-275404Y-49809
X-275404Y-44806
X-270400Y-44806
X-275404Y-39802
X-275404Y-34798
X-270400Y-34798
X-270400Y-39802
X-247540Y-34798
X-242536Y-34798
X-242536Y-39802
X-247540Y-39802
X-247540Y-44806
X-242536Y-44806
X-247540Y-49809
X-242536Y-49809
X-247540Y-54813
X-242536Y-54813
X-220006Y-76966
X-215003Y-81970
X-220006Y-86974
X-215003Y-86974
X-220006Y-81970
X-215003Y-76966
X-215003Y-71962
X-220006Y-71962
X-214672Y-54813
X-214672Y-49809
X-219676Y-54813
X-219676Y-49809
X-219676Y-44806
X-214672Y-44806
X-214672Y-39802
X-219676Y-39802
X-219676Y-34798
X-214672Y-34798
X-191812Y-34798
X-186809Y-34798
X-186809Y-39802
X-191812Y-39802
X-186809Y-44806
X-191812Y-44806
X-191812Y-49809
X-191812Y-54813
X-186809Y-54813
X-186809Y-49809
X-163949Y-39802
X-158945Y-34798
X-163949Y-34798
X-158945Y-39802
X-158945Y-44806
X-163949Y-44806
X-158945Y-49809
X-163949Y-49809
X-158945Y-54813
X-163949Y-54813
X-149953Y-70955
X-149953Y-75958
X-144949Y-80962
X-149953Y-85966
X-149953Y-90970
X-144949Y-90970
X-144949Y-85966
X-149953Y-80962
X-144949Y-75958
X-144949Y-70955
X-136085Y-54813
X-131081Y-54813
X-131081Y-49809
X-136085Y-44806
X-136085Y-49809
X-131081Y-44806
X-131081Y-39802
X-136085Y-39802
X-136085Y-34798
X-131081Y-34798
T7C2400
X-381500Y-85000
X-108500Y-85000
X-182494Y-75007
X-307494Y-75007
X-108500Y0
X-381500Y0
M30
