G04 Filename: S:\JOB\SEAM\ARCHIVE_SERVICE\KLIEMANN_SERVICE\TOP_MASK.GBX *
G04 Creator: GC-CAM (TM) 4.1.4  Thu Jun 25 11:42:20 2015 *
G04 This file contains layer(s): *
G04 Layer 4: C:\liams\gmz100_anschluss.gts *
%FSLAX35Y35*%
G04 Units: mm   *
%MOMM*%
G71*
%SFA1.00000B1.00000*%
%OFA0.00000B0.00000*%
G75*
%AD*%
G04 D36 (position 27 of UNTITLED):2.565400X2.743200 Rectangle *
%ADD36R,2.565400X2.743200*%
G04 D37 (position 28 of UNTITLED):2.743200X2.565400 Rectangle *
%ADD37R,2.743200X2.565400*%
G04 D38 (position 29 of UNTITLED):1.320800X2.184400 Rectangle *
%ADD38R,1.320800X2.184400*%
G04 D39 (position 30 of UNTITLED):4.978400X5.740400 Rectangle *
%ADD39R,4.978400X5.740400*%
G04 D40 (position 31 of UNTITLED):3.652266X1.952498 Rectangle *
%ADD40R,3.652266X1.952498*%
G04 D41 (position 32 of UNTITLED):1.676400X1.270000 Rectangle *
%ADD41R,1.676400X1.270000*%
G04 D42 (position 33 of UNTITLED):1.371600X1.066800 Rectangle *
%ADD42R,1.371600X1.066800*%
G04 D43 (position 34 of UNTITLED):1.270000X1.676400 Rectangle *
%ADD43R,1.270000X1.676400*%
G04 D44 (position 35 of UNTITLED):1.346200 Square    *
%ADD44R,1.346200X1.346200*%
G04 D45 (position 36 of UNTITLED):1.168400X1.371600 Rectangle *
%ADD45R,1.168400X1.371600*%
G04 D46 (position 37 of UNTITLED):1.066800X1.371600 Rectangle *
%ADD46R,1.066800X1.371600*%
G04 D47 (position 38 of UNTITLED):1.371600X1.168400 Rectangle *
%ADD47R,1.371600X1.168400*%
G04 D48 (position 39 of UNTITLED):2.946400 Round     *
%ADD48C,2.946400*%
G04 D49 (position 40 of UNTITLED):1.652524 Square    *
%ADD49R,1.652524X1.652524*%
G04 D50 (position 41 of UNTITLED):1.652524 Round     *
%ADD50C,1.652524*%
G04 D51 (position 42 of UNTITLED):1.955800 Round     *
%ADD51C,1.955800*%
G04 D52 (position 43 of UNTITLED):3.352800 Round     *
%ADD52C,3.352800*%
G04 D53 (position 44 of UNTITLED):2.565400 Round     *
%ADD53C,2.565400*%
G04 D54 (position 45 of UNTITLED):0.152400 Round     *
%ADD54C,0.152400*%
G04 D55 (position 46 of UNTITLED):1.422400 Round     *
%ADD55C,1.422400*%
G04 D57 (position 48 of UNTITLED):0.100000 Round     *
%ADD57C,0.100000*%
%IPPOS*%
G04 Layer 4: C:\liams\gmz100_anschluss.gts *
%LN(04)C:\liams\gmz100_anschluss.gts*%
%LPD*%
X0Y0D02*
D57*
X-38599991Y-4349999D02*
G03X-38699991Y-4249999I-100000J0D01*
G01Y-5249997D02*
G03X-38599991Y-5149997I0J100000D01*
G01X-10399996D02*
G03X-10299997Y-5249997I99999J0D01*
G01Y-4249999D02*
G03X-10399996Y-4349999I0J-100000D01*
G01X-38999990Y4499996D02*
X-9999997D01*
X-38599991Y-5149997D02*
Y-4349999D01*
X-38999990Y-4249999D02*
X-38699991D01*
X-38999990Y-5249997D02*
X-38699991D01*
X-10299997D02*
X-9999997D01*
X-10299997Y-4249999D02*
X-9999997D01*
X-10399996Y-5149997D02*
Y-4349999D01*
X-38999990Y-10000000D02*
Y-5249997D01*
Y-4249999D02*
Y4499996D01*
X-9999997Y-10000000D02*
Y-5249997D01*
X-38999990Y-10000000D02*
X-9999997D01*
Y-4249999D02*
Y4499996D01*
D36*
X-26731790Y3629640D03*
X-26274590D03*
X-26269510Y3291820D03*
X-26726710D03*
D37*
X-27168670Y3749020D03*
Y3291820D03*
D38*
X-25375430Y3342620D03*
X-24918230D03*
D39*
X-25146830Y4109700D03*
D40*
X-25941850Y3753490D03*
Y4313510D03*
D41*
X-25967250Y3502640D03*
Y3289280D03*
D42*
X-25624350Y3672820D03*
Y3342620D03*
Y4119860D03*
Y3789660D03*
D43*
X-12192830Y1920220D03*
X-12406190D03*
X-14979210D03*
X-15192570D03*
X-17765590D03*
X-17978950D03*
X-20551970D03*
X-20765330D03*
X-23338350D03*
X-23551710D03*
X-26124730D03*
X-26338090D03*
X-28911110D03*
X-29124470D03*
X-31697490D03*
X-31910850D03*
X-34697230Y1686540D03*
X-34483870D03*
Y1920220D03*
X-34697230D03*
Y2539980D03*
X-34483870D03*
X-31910850Y1686540D03*
X-31697490D03*
X-29124470D03*
X-28911110D03*
X-26338090D03*
X-26124730D03*
X-23551710D03*
X-23338350D03*
X-20765330D03*
X-20551970D03*
X-17978950D03*
X-17765590D03*
X-15192570D03*
X-14979210D03*
X-12406190D03*
X-12192830D03*
Y2539980D03*
X-12406190D03*
X-14979210D03*
X-15192570D03*
X-17765590D03*
X-17978950D03*
X-20551970D03*
X-20765330D03*
X-23551710D03*
X-23338350D03*
X-26338090D03*
X-26124730D03*
X-29124470D03*
X-28911110D03*
X-31910850D03*
X-31697490D03*
D44*
X-21283490Y1076940D03*
X-21075210D03*
X-32429010D03*
X-32220730D03*
X-18499650D03*
X-18291370D03*
X-29642630D03*
X-29434350D03*
X-15710730D03*
X-15502450D03*
X-26858790D03*
X-26650510D03*
X-12924350D03*
X-12716070D03*
X-24069870D03*
X-23861590D03*
X-35215390D03*
X-35007110D03*
D45*
X-12299510Y1069320D03*
X-12492550D03*
X-12396030Y825480D03*
X-15085890Y1069320D03*
X-15278930D03*
X-15182410Y825480D03*
X-17872270Y1069320D03*
X-18065310D03*
X-17968790Y825480D03*
X-20658650Y1069320D03*
X-20851690D03*
X-20755170Y825480D03*
X-23445030Y1069320D03*
X-23638070D03*
X-23541550Y825480D03*
X-26231410Y1069320D03*
X-26424450D03*
X-26327930Y825480D03*
X-29017790Y1069320D03*
X-29210830D03*
X-29114310Y825480D03*
X-31804170Y1069320D03*
X-31997210D03*
X-31900690Y825480D03*
X-34590550Y1069320D03*
X-34783590D03*
X-34687070Y825480D03*
D46*
X-12655110D03*
X-12985310D03*
X-15441490D03*
X-15771690D03*
X-18227870D03*
X-18558070D03*
X-21014250D03*
X-21344450D03*
X-23800630D03*
X-24130830D03*
X-26587010D03*
X-26917210D03*
X-29373390D03*
X-29703590D03*
X-32159770D03*
X-32489970D03*
X-34946150D03*
X-35276350D03*
D47*
X-34468630Y2133580D03*
Y2326620D03*
X-34712470Y2230100D03*
X-31682250Y2133580D03*
Y2326620D03*
X-31926090Y2230100D03*
X-28895870Y2133580D03*
Y2326620D03*
X-29139710Y2230100D03*
X-26109490Y2133580D03*
Y2326620D03*
X-26353330Y2230100D03*
X-23323110Y2133580D03*
Y2326620D03*
X-23566950Y2230100D03*
X-20536730Y2133580D03*
Y2326620D03*
X-20780570Y2230100D03*
X-17750350Y2133580D03*
Y2326620D03*
X-17994190Y2230100D03*
X-14963970Y2133580D03*
Y2326620D03*
X-15207810Y2230100D03*
X-12177590Y2133580D03*
Y2326620D03*
X-12421430Y2230100D03*
D48*
X-38532630Y4023340D03*
X-27168670D03*
X-26668671D03*
X-24567710D03*
X-24067711D03*
X-37532632D03*
X-38032631D03*
X-35899514Y-3980175D03*
X-35399134D03*
X-35899514Y-4480555D03*
X-35399134D03*
X-35899514Y-4980935D03*
X-35399134D03*
X-35899514Y-3479795D03*
X-35399134D03*
Y-5481315D03*
X-35899514D03*
X-33113134Y-3980175D03*
X-32612754D03*
X-33113134Y-4480555D03*
X-32612754D03*
X-33113134Y-4980935D03*
X-32612754D03*
X-33113134Y-3479795D03*
X-32612754D03*
Y-5481315D03*
X-33113134D03*
X-30326754Y-3980175D03*
X-29826374D03*
X-30326754Y-4480555D03*
X-29826374D03*
X-30326754Y-4980935D03*
X-29826374D03*
X-30326754Y-3479795D03*
X-29826374D03*
Y-5481315D03*
X-30326754D03*
X-27540374Y-3980175D03*
X-27039994D03*
X-27540374Y-4480555D03*
X-27039994D03*
X-27540374Y-4980935D03*
X-27039994D03*
X-27540374Y-3479795D03*
X-27039994D03*
Y-5481315D03*
X-27540374D03*
X-24753994Y-3980175D03*
X-24253614D03*
X-24753994Y-4480555D03*
X-24253614D03*
X-24753994Y-4980935D03*
X-24253614D03*
X-24753994Y-3479795D03*
X-24253614D03*
Y-5481315D03*
X-24753994D03*
X-21967614Y-3980175D03*
X-21467234D03*
X-21967614Y-4480555D03*
X-21467234D03*
X-21967614Y-4980935D03*
X-21467234D03*
X-21967614Y-3479795D03*
X-21467234D03*
Y-5481315D03*
X-21967614D03*
X-19181234Y-3980175D03*
X-18680854D03*
X-19181234Y-4480555D03*
X-18680854D03*
X-19181234Y-4980935D03*
X-18680854D03*
X-19181234Y-3479795D03*
X-18680854D03*
Y-5481315D03*
X-19181234D03*
X-16394854Y-3980175D03*
X-15894474D03*
X-16394854Y-4480555D03*
X-15894474D03*
X-16394854Y-4980935D03*
X-15894474D03*
X-16394854Y-3479795D03*
X-15894474D03*
Y-5481315D03*
X-16394854D03*
X-13608474Y-3980175D03*
X-13108094D03*
X-13608474Y-4480555D03*
X-13108094D03*
X-13608474Y-4980935D03*
X-13108094D03*
X-13608474Y-3479795D03*
X-13108094D03*
Y-5481315D03*
X-13608474D03*
X-14995314Y-7595839D03*
X-14494934D03*
X-14995314Y-8096219D03*
X-14494934D03*
X-14995314Y-8596599D03*
X-14494934D03*
X-14995314Y-7095459D03*
X-14494934D03*
Y-9096979D03*
X-14995314D03*
X-21500254Y-7196221D03*
X-22000634D03*
X-21500254Y-8697361D03*
X-22000634D03*
X-21500254Y-8196981D03*
X-22000634D03*
X-21500254Y-7696601D03*
X-22000634D03*
X-28429374Y-7196221D03*
X-28929754D03*
X-28429374Y-8697361D03*
X-28929754D03*
X-28429374Y-8196981D03*
X-28929754D03*
X-28429374Y-7696601D03*
X-28929754D03*
X-33999594Y-8196600D03*
X-34499974D03*
X-33999594Y-7696220D03*
X-34499974D03*
X-33999594Y-8696980D03*
X-34499974D03*
D49*
X-23499132Y3421360D03*
D50*
Y3675360D03*
X-23245132Y3421360D03*
Y3675360D03*
X-22991132Y3421360D03*
Y3675360D03*
X-22737132Y3421360D03*
Y3675360D03*
X-22483132Y3421360D03*
Y3675360D03*
X-22229132Y3421360D03*
Y3675360D03*
X-21975132Y3421360D03*
Y3675360D03*
X-21721132Y3421360D03*
Y3675360D03*
X-21467132Y3421360D03*
Y3675360D03*
X-21213132Y3421360D03*
Y3675360D03*
D51*
X-35111250Y2311380D03*
Y2057380D03*
Y1803380D03*
X-12821074Y2311405D03*
Y2057405D03*
Y1803405D03*
X-15607454Y2311405D03*
Y2057405D03*
Y1803405D03*
X-18393834Y2311405D03*
Y2057405D03*
Y1803405D03*
X-21180214Y2311405D03*
Y2057405D03*
Y1803405D03*
X-23966594Y2311405D03*
Y2057405D03*
Y1803405D03*
X-26752974Y2311405D03*
Y2057405D03*
Y1803405D03*
X-29539354Y2311405D03*
Y2057405D03*
Y1803405D03*
X-32325734Y2311405D03*
Y2057405D03*
Y1803405D03*
X-13202074Y414025D03*
X-12440074D03*
X-15988454D03*
X-15226454D03*
X-18774834D03*
X-18012834D03*
X-21561214D03*
X-20799214D03*
X-24347594D03*
X-23585594D03*
X-27133974D03*
X-26371974D03*
X-29920354D03*
X-29158354D03*
X-32706734D03*
X-31944734D03*
X-35493114D03*
X-34731114D03*
D52*
X-17177174Y-7193300D03*
X-16669174D03*
X-17177174Y-7955300D03*
X-16669174D03*
X-24182494Y-7193300D03*
X-23674494D03*
X-24182494Y-7955300D03*
X-23674494D03*
X-36681834Y-7193300D03*
X-36173834D03*
X-36681834Y-7955300D03*
X-36173834D03*
X-14235854Y-1805935D03*
X-13727854D03*
X-14235854Y-2567935D03*
X-13727854D03*
X-17022234Y-1805935D03*
X-16514234D03*
X-17022234Y-2567935D03*
X-16514234D03*
X-19808614Y-1805935D03*
X-19300614D03*
X-19808614Y-2567935D03*
X-19300614D03*
X-22594994Y-1805935D03*
X-22086994D03*
X-22594994Y-2567935D03*
X-22086994D03*
X-25381374Y-1805935D03*
X-24873374D03*
X-25381374Y-2567935D03*
X-24873374D03*
X-28167754Y-1805935D03*
X-27659754D03*
X-28167754Y-2567935D03*
X-27659754D03*
X-30954134Y-1805935D03*
X-30446134D03*
X-30954134Y-2567935D03*
X-30446134D03*
X-33740514Y-1805935D03*
X-33232514D03*
X-33740514Y-2567935D03*
X-33232514D03*
X-36526894Y-1805935D03*
X-36018894D03*
X-36526894Y-2567935D03*
X-36018894D03*
D53*
X-12440074Y-1485895D03*
Y-2125975D03*
X-13202074Y-1805935D03*
X-15226454Y-1485895D03*
Y-2125975D03*
X-15988454Y-1805935D03*
X-18012834Y-1485895D03*
Y-2125975D03*
X-18774834Y-1805935D03*
X-20799214Y-1485895D03*
Y-2125975D03*
X-21561214Y-1805935D03*
X-23585594Y-1485895D03*
Y-2125975D03*
X-24347594Y-1805935D03*
X-26371974Y-1485895D03*
Y-2125975D03*
X-27133974Y-1805935D03*
X-29158354Y-1485895D03*
Y-2125975D03*
X-29920354Y-1805935D03*
X-31944734Y-1485895D03*
Y-2125975D03*
X-32706734Y-1805935D03*
X-34731114Y-1485895D03*
Y-2125975D03*
X-35493114Y-1805935D03*
D54*
X-38149979Y-8500003D03*
X-10849983D03*
X-38149979Y5D03*
X-10849983D03*
X-30749435Y-7500716D03*
X-18249435D03*
D55*
X-25684472Y1803405D03*
X-25685335Y2311405D03*
X-25802150Y3502640D03*
X-26965470Y3291820D03*
X-23018310Y2974320D03*
X-23015770Y414000D03*
M02*
